<svg width="18" height="18" viewBox="0 0 18 18" fill="none" xmlns="http://www.w3.org/2000/svg">
    <path fill-rule="evenodd" clip-rule="evenodd"
        d="M13.3804 9C13.3804 9.11189 13.336 9.21919 13.2569 9.29831C13.1777 9.37743 13.0704 9.42188 12.9585 9.42188H9.42234V12.9579C9.42234 13.0698 9.37789 13.1771 9.29877 13.2562C9.21964 13.3353 9.11233 13.3798 9.00044 13.3798C8.88855 13.3798 8.78123 13.3353 8.70211 13.2562C8.62299 13.1771 8.57854 13.0698 8.57854 12.9579V9.42188H5.04241C4.93052 9.42188 4.8232 9.37743 4.74408 9.29831C4.66496 9.21919 4.62051 9.11189 4.62051 9C4.62051 8.88811 4.66496 8.78081 4.74408 8.70169C4.8232 8.62257 4.93052 8.57812 5.04241 8.57812H8.57854V5.04207C8.57854 4.93019 8.62299 4.82288 8.70211 4.74376C8.78123 4.66465 8.88855 4.6202 9.00044 4.6202C9.11233 4.6202 9.21964 4.66465 9.29877 4.74376C9.37789 4.82288 9.42234 4.93019 9.42234 5.04207V8.57812H12.9585C13.0704 8.57812 13.1777 8.62257 13.2568 8.70169C13.3359 8.78081 13.3804 8.88811 13.3804 9H13.3804ZM9.00037 0C4.03742 0 0 4.03734 0 9C0 13.9627 4.03742 18 9.00047 18C13.9635 18 18 13.9627 18 9C18 4.03734 13.9633 0 9.00037 0Z"
        fill="white" />
</svg>
