<svg width="24" height="24" viewBox="0 0 24 24" fill="none" xmlns="http://www.w3.org/2000/svg">
    <path
        d="M21.001 5.25H17.442C16.541 5.25 16.503 5.136 16.256 4.396L16.054 3.789C15.747 2.869 14.89 2.25 13.92 2.25H10.082C9.11197 2.25 8.25397 2.868 7.94798 3.789L7.74598 4.396C7.49898 5.137 7.46097 5.25 6.55997 5.25H3.00098C2.58698 5.25 2.25098 5.586 2.25098 6C2.25098 6.414 2.58698 6.75 3.00098 6.75H4.29897L5.06598 18.249C5.21398 20.474 6.57798 21.75 8.80798 21.75H15.195C17.424 21.75 18.788 20.474 18.937 18.249L19.704 6.75H21.001C21.415 6.75 21.751 6.414 21.751 6C21.751 5.586 21.415 5.25 21.001 5.25ZM9.37097 4.263C9.47397 3.956 9.75897 3.75 10.082 3.75H13.92C14.243 3.75 14.529 3.956 14.631 4.263L14.833 4.87C14.877 5.001 14.921 5.128 14.969 5.25H9.03098C9.07898 5.127 9.12398 5 9.16798 4.87L9.37097 4.263ZM17.439 18.149C17.344 19.582 16.63 20.25 15.194 20.25H8.80698C7.37098 20.25 6.65797 19.583 6.56197 18.149L5.80198 6.75H6.55898C6.68398 6.75 6.78798 6.737 6.89998 6.729C6.93398 6.734 6.96498 6.75 6.99998 6.75H17C17.036 6.75 17.066 6.734 17.1 6.729C17.212 6.737 17.316 6.75 17.441 6.75H18.198L17.439 18.149ZM14.751 11V16C14.751 16.414 14.415 16.75 14.001 16.75C13.587 16.75 13.251 16.414 13.251 16V11C13.251 10.586 13.587 10.25 14.001 10.25C14.415 10.25 14.751 10.586 14.751 11ZM10.751 11V16C10.751 16.414 10.415 16.75 10.001 16.75C9.58698 16.75 9.25098 16.414 9.25098 16V11C9.25098 10.586 9.58698 10.25 10.001 10.25C10.415 10.25 10.751 10.586 10.751 11Z"
        fill="#ffffff" />
</svg>
