<svg width="13" height="13" viewBox="0 0 13 13" fill="none" xmlns="http://www.w3.org/2000/svg">
    <path d="M12.4143 7.09271C12.2575 7.09271 12.1071 7.15499 11.9962 7.26586C11.8854 7.37672 11.8231 7.52708 11.8231 7.68387V10.1744C11.8226 10.6112 11.6489 11.03 11.34 11.3389C11.0311 11.6477 10.6124 11.8215 10.1755 11.822H2.82986C2.39305 11.8215 1.97426 11.6477 1.66538 11.3389C1.35651 11.03 1.18278 10.6112 1.18231 10.1744V7.68387C1.18231 7.52708 1.12003 7.37672 1.00916 7.26586C0.898301 7.15499 0.747939 7.09271 0.591155 7.09271C0.434371 7.09271 0.284008 7.15499 0.173145 7.26586C0.0622822 7.37672 0 7.52708 0 7.68387V10.1744C0.000782444 10.9247 0.299179 11.644 0.82971 12.1746C1.36024 12.7051 2.07957 13.0035 2.82986 13.0043H10.1755C10.9258 13.0035 11.6452 12.7051 12.1757 12.1746C12.7062 11.644 13.0046 10.9247 13.0054 10.1744V7.68387C13.0054 7.52708 12.9431 7.37672 12.8323 7.26586C12.7214 7.15499 12.571 7.09271 12.4143 7.09271Z" fill="white"/>
    <path d="M3.37366 4.5559L5.91149 2.01808V9.45835C5.91149 9.61514 5.97377 9.7655 6.08464 9.87636C6.1955 9.98722 6.34586 10.0495 6.50265 10.0495C6.65943 10.0495 6.80979 9.98722 6.92065 9.87636C7.03152 9.7655 7.0938 9.61514 7.0938 9.45835V2.01808L9.63163 4.5559C9.74312 4.66359 9.89245 4.72317 10.0474 4.72183C10.2024 4.72048 10.3507 4.65831 10.4603 4.5487C10.5699 4.4391 10.6321 4.29083 10.6334 4.13583C10.6348 3.98083 10.5752 3.8315 10.4675 3.72001L6.92059 0.173082C6.80973 0.0622577 6.6594 0 6.50265 0C6.34589 0 6.19556 0.0622577 6.0847 0.173082L2.53777 3.72001C2.43009 3.8315 2.3705 3.98083 2.37185 4.13583C2.3732 4.29083 2.43537 4.4391 2.54497 4.5487C2.65458 4.65831 2.80285 4.72048 2.95784 4.72183C3.11284 4.72317 3.26217 4.66359 3.37366 4.5559Z" fill="white"/>
</svg>
